<?xml version="1.0" encoding="UTF-8" standalone="no"?>
<!DOCTYPE svg PUBLIC "-//W3C//DTD SVG 1.1//EN"
 "http://www.w3.org/Graphics/SVG/1.1/DTD/svg11.dtd">
<!-- Generated by graphviz version 2.47.3 (20210619.1520)
 -->
<!-- Title: dependencies Pages: 1 -->
<svg width="602pt" height="174pt"
 viewBox="0.00 0.00 602.00 173.80" xmlns="http://www.w3.org/2000/svg" xmlns:xlink="http://www.w3.org/1999/xlink">
<g id="graph0" class="graph" transform="scale(1 1) rotate(0) translate(4 169.8)">
<title>dependencies</title>
<polygon fill="white" stroke="transparent" points="-4,4 -4,-169.8 598,-169.8 598,4 -4,4"/>
<text text-anchor="middle" x="297" y="-8.2" font-family="sans-serif" font-size="14.00">dependencies</text>
<g id="clust1" class="cluster">
<title>cluster_RestaurantsModule</title>
<polygon fill="none" stroke="black" stroke-dasharray="1,5" points="8,-32.8 8,-157.8 586,-157.8 586,-32.8 8,-32.8"/>
</g>
<g id="clust6" class="cluster">
<title>cluster_RestaurantsModule_providers</title>
<polygon fill="none" stroke="black" points="16,-40.8 16,-92.8 578,-92.8 578,-40.8 16,-40.8"/>
</g>
<!-- EmailSchedulingService -->
<g id="node1" class="node">
<title>EmailSchedulingService</title>
<ellipse fill="#fdb462" stroke="black" cx="463" cy="-66.8" rx="106.52" ry="18"/>
<text text-anchor="middle" x="463" y="-62.6" font-family="Times,serif" font-size="14.00">EmailSchedulingService</text>
</g>
<!-- RestaurantsModule -->
<g id="node4" class="node">
<title>RestaurantsModule</title>
<polygon fill="#8dd3c7" stroke="black" points="337.36,-149.8 334.36,-153.8 313.36,-153.8 310.36,-149.8 212.64,-149.8 212.64,-113.8 337.36,-113.8 337.36,-149.8"/>
<text text-anchor="middle" x="275" y="-127.6" font-family="Times,serif" font-size="14.00">RestaurantsModule</text>
</g>
<!-- EmailSchedulingService&#45;&gt;RestaurantsModule -->
<g id="edge1" class="edge">
<title>EmailSchedulingService&#45;&gt;RestaurantsModule</title>
<path fill="none" stroke="black" d="M463,-84.91C463,-104.14 463,-131.8 463,-131.8 463,-131.8 347.6,-131.8 347.6,-131.8"/>
<polygon fill="black" stroke="black" points="347.6,-128.3 337.6,-131.8 347.6,-135.3 347.6,-128.3"/>
</g>
<!-- EmailService -->
<g id="node2" class="node">
<title>EmailService</title>
<ellipse fill="#fdb462" stroke="black" cx="275" cy="-66.8" rx="63.12" ry="18"/>
<text text-anchor="middle" x="275" y="-62.6" font-family="Times,serif" font-size="14.00">EmailService</text>
</g>
<!-- EmailService&#45;&gt;RestaurantsModule -->
<g id="edge2" class="edge">
<title>EmailService&#45;&gt;RestaurantsModule</title>
<path fill="none" stroke="black" d="M275,-84.91C275,-84.91 275,-103.79 275,-103.79"/>
<polygon fill="black" stroke="black" points="271.5,-103.79 275,-113.79 278.5,-103.79 271.5,-103.79"/>
</g>
<!-- RestaurantsService -->
<g id="node3" class="node">
<title>RestaurantsService</title>
<ellipse fill="#fdb462" stroke="black" cx="109" cy="-66.8" rx="85.09" ry="18"/>
<text text-anchor="middle" x="109" y="-62.6" font-family="Times,serif" font-size="14.00">RestaurantsService</text>
</g>
<!-- RestaurantsService&#45;&gt;RestaurantsModule -->
<g id="edge3" class="edge">
<title>RestaurantsService&#45;&gt;RestaurantsModule</title>
<path fill="none" stroke="black" d="M109,-84.91C109,-104.14 109,-131.8 109,-131.8 109,-131.8 202.24,-131.8 202.24,-131.8"/>
<polygon fill="black" stroke="black" points="202.24,-135.3 212.24,-131.8 202.24,-128.3 202.24,-135.3"/>
</g>
</g>
</svg>
