<?xml version="1.0" encoding="UTF-8" standalone="no"?>
<!DOCTYPE svg PUBLIC "-//W3C//DTD SVG 1.1//EN"
 "http://www.w3.org/Graphics/SVG/1.1/DTD/svg11.dtd">
<!-- Generated by graphviz version 2.47.3 (20210619.1520)
 -->
<!-- Title: dependencies Pages: 1 -->
<svg width="935pt" height="174pt"
 viewBox="0.00 0.00 935.00 173.80" xmlns="http://www.w3.org/2000/svg" xmlns:xlink="http://www.w3.org/1999/xlink">
<g id="graph0" class="graph" transform="scale(1 1) rotate(0) translate(4 169.8)">
<title>dependencies</title>
<polygon fill="white" stroke="transparent" points="-4,4 -4,-169.8 931,-169.8 931,4 -4,4"/>
<text text-anchor="middle" x="463.5" y="-8.2" font-family="sans-serif" font-size="14.00">dependencies</text>
<g id="clust1" class="cluster">
<title>cluster_AppModule</title>
<polygon fill="none" stroke="black" stroke-dasharray="1,5" points="8,-32.8 8,-157.8 919,-157.8 919,-32.8 8,-32.8"/>
</g>
<g id="clust6" class="cluster">
<title>cluster_AppModule_providers</title>
<polygon fill="none" stroke="black" points="638,-40.8 638,-92.8 911,-92.8 911,-40.8 638,-40.8"/>
</g>
<g id="clust3" class="cluster">
<title>cluster_AppModule_imports</title>
<polygon fill="none" stroke="black" points="16,-40.8 16,-92.8 630,-92.8 630,-40.8 16,-40.8"/>
</g>
<!-- AdminModule -->
<g id="node1" class="node">
<title>AdminModule</title>
<polygon fill="#8dd3c7" stroke="black" points="622.44,-84.8 619.44,-88.8 598.44,-88.8 595.44,-84.8 523.56,-84.8 523.56,-48.8 622.44,-48.8 622.44,-84.8"/>
<text text-anchor="middle" x="573" y="-62.6" font-family="Times,serif" font-size="14.00">AdminModule</text>
</g>
<!-- AppModule -->
<g id="node6" class="node">
<title>AppModule</title>
<polygon fill="#8dd3c7" stroke="black" points="493.66,-149.8 490.66,-153.8 469.66,-153.8 466.66,-149.8 410.34,-149.8 410.34,-113.8 493.66,-113.8 493.66,-149.8"/>
<text text-anchor="middle" x="452" y="-127.6" font-family="Times,serif" font-size="14.00">AppModule</text>
</g>
<!-- AdminModule&#45;&gt;AppModule -->
<g id="edge1" class="edge">
<title>AdminModule&#45;&gt;AppModule</title>
<path fill="none" stroke="black" d="M573,-84.83C573,-101.2 573,-122.8 573,-122.8 573,-122.8 503.98,-122.8 503.98,-122.8"/>
<polygon fill="black" stroke="black" points="503.98,-119.3 493.98,-122.8 503.98,-126.3 503.98,-119.3"/>
</g>
<!-- FirebaseModule -->
<g id="node2" class="node">
<title>FirebaseModule</title>
<polygon fill="#8dd3c7" stroke="black" points="505.47,-84.8 502.47,-88.8 481.47,-88.8 478.47,-84.8 398.53,-84.8 398.53,-48.8 505.47,-48.8 505.47,-84.8"/>
<text text-anchor="middle" x="452" y="-62.6" font-family="Times,serif" font-size="14.00">FirebaseModule</text>
</g>
<!-- FirebaseModule&#45;&gt;AppModule -->
<g id="edge2" class="edge">
<title>FirebaseModule&#45;&gt;AppModule</title>
<path fill="none" stroke="black" d="M452,-84.91C452,-84.91 452,-103.79 452,-103.79"/>
<polygon fill="black" stroke="black" points="448.5,-103.79 452,-113.79 455.5,-103.79 448.5,-103.79"/>
</g>
<!-- RestaurantsModule -->
<g id="node3" class="node">
<title>RestaurantsModule</title>
<polygon fill="#8dd3c7" stroke="black" points="380.36,-84.8 377.36,-88.8 356.36,-88.8 353.36,-84.8 255.64,-84.8 255.64,-48.8 380.36,-48.8 380.36,-84.8"/>
<text text-anchor="middle" x="318" y="-62.6" font-family="Times,serif" font-size="14.00">RestaurantsModule</text>
</g>
<!-- RestaurantsModule&#45;&gt;AppModule -->
<g id="edge3" class="edge">
<title>RestaurantsModule&#45;&gt;AppModule</title>
<path fill="none" stroke="black" d="M318,-84.83C318,-101.2 318,-122.8 318,-122.8 318,-122.8 400.34,-122.8 400.34,-122.8"/>
<polygon fill="black" stroke="black" points="400.34,-126.3 410.34,-122.8 400.34,-119.3 400.34,-126.3"/>
</g>
<!-- SupportModule -->
<g id="node4" class="node">
<title>SupportModule</title>
<polygon fill="#8dd3c7" stroke="black" points="237.88,-84.8 234.88,-88.8 213.88,-88.8 210.88,-84.8 134.12,-84.8 134.12,-48.8 237.88,-48.8 237.88,-84.8"/>
<text text-anchor="middle" x="186" y="-62.6" font-family="Times,serif" font-size="14.00">SupportModule</text>
</g>
<!-- SupportModule&#45;&gt;AppModule -->
<g id="edge4" class="edge">
<title>SupportModule&#45;&gt;AppModule</title>
<path fill="none" stroke="black" d="M186,-84.91C186,-104.14 186,-131.8 186,-131.8 186,-131.8 400.14,-131.8 400.14,-131.8"/>
<polygon fill="black" stroke="black" points="400.14,-135.3 410.14,-131.8 400.14,-128.3 400.14,-135.3"/>
</g>
<!-- SyncsModule -->
<g id="node5" class="node">
<title>SyncsModule</title>
<polygon fill="#8dd3c7" stroke="black" points="116.49,-84.8 113.49,-88.8 92.49,-88.8 89.49,-84.8 23.51,-84.8 23.51,-48.8 116.49,-48.8 116.49,-84.8"/>
<text text-anchor="middle" x="70" y="-62.6" font-family="Times,serif" font-size="14.00">SyncsModule</text>
</g>
<!-- SyncsModule&#45;&gt;AppModule -->
<g id="edge5" class="edge">
<title>SyncsModule&#45;&gt;AppModule</title>
<path fill="none" stroke="black" d="M70,-85.09C70,-107.01 70,-140.8 70,-140.8 70,-140.8 400.03,-140.8 400.03,-140.8"/>
<polygon fill="black" stroke="black" points="400.03,-144.3 410.03,-140.8 400.03,-137.3 400.03,-144.3"/>
</g>
<!-- AppService -->
<g id="node7" class="node">
<title>AppService</title>
<ellipse fill="#fdb462" stroke="black" cx="846" cy="-66.8" rx="56.74" ry="18"/>
<text text-anchor="middle" x="846" y="-62.6" font-family="Times,serif" font-size="14.00">AppService</text>
</g>
<!-- AppService&#45;&gt;AppModule -->
<g id="edge6" class="edge">
<title>AppService&#45;&gt;AppModule</title>
<path fill="none" stroke="black" d="M846,-85.09C846,-107.01 846,-140.8 846,-140.8 846,-140.8 503.79,-140.8 503.79,-140.8"/>
<polygon fill="black" stroke="black" points="503.79,-137.3 493.79,-140.8 503.79,-144.3 503.79,-137.3"/>
</g>
<!-- TasksService -->
<g id="node8" class="node">
<title>TasksService</title>
<ellipse fill="#fdb462" stroke="black" cx="709" cy="-66.8" rx="62.54" ry="18"/>
<text text-anchor="middle" x="709" y="-62.6" font-family="Times,serif" font-size="14.00">TasksService</text>
</g>
<!-- TasksService&#45;&gt;AppModule -->
<g id="edge7" class="edge">
<title>TasksService&#45;&gt;AppModule</title>
<path fill="none" stroke="black" d="M709,-84.91C709,-104.14 709,-131.8 709,-131.8 709,-131.8 503.86,-131.8 503.86,-131.8"/>
<polygon fill="black" stroke="black" points="503.86,-128.3 493.86,-131.8 503.86,-135.3 503.86,-128.3"/>
</g>
</g>
</svg>
