<?xml version="1.0" encoding="UTF-8" standalone="no"?>
<!DOCTYPE svg PUBLIC "-//W3C//DTD SVG 1.1//EN"
 "http://www.w3.org/Graphics/SVG/1.1/DTD/svg11.dtd">
<!-- Generated by graphviz version 2.47.3 (20210619.1520)
 -->
<!-- Title: dependencies Pages: 1 -->
<svg width="818pt" height="174pt"
 viewBox="0.00 0.00 818.00 173.80" xmlns="http://www.w3.org/2000/svg" xmlns:xlink="http://www.w3.org/1999/xlink">
<g id="graph0" class="graph" transform="scale(1 1) rotate(0) translate(4 169.8)">
<title>dependencies</title>
<polygon fill="white" stroke="transparent" points="-4,4 -4,-169.8 814,-169.8 814,4 -4,4"/>
<text text-anchor="middle" x="405" y="-8.2" font-family="sans-serif" font-size="14.00">dependencies</text>
<g id="clust1" class="cluster">
<title>cluster_AppModule</title>
<polygon fill="none" stroke="black" stroke-dasharray="1,5" points="8,-32.8 8,-157.8 802,-157.8 802,-32.8 8,-32.8"/>
</g>
<g id="clust6" class="cluster">
<title>cluster_AppModule_providers</title>
<polygon fill="none" stroke="black" points="521,-40.8 521,-92.8 794,-92.8 794,-40.8 521,-40.8"/>
</g>
<g id="clust3" class="cluster">
<title>cluster_AppModule_imports</title>
<polygon fill="none" stroke="black" points="16,-40.8 16,-92.8 513,-92.8 513,-40.8 16,-40.8"/>
</g>
<!-- FirebaseModule -->
<g id="node1" class="node">
<title>FirebaseModule</title>
<polygon fill="#8dd3c7" stroke="black" points="505.47,-84.8 502.47,-88.8 481.47,-88.8 478.47,-84.8 398.53,-84.8 398.53,-48.8 505.47,-48.8 505.47,-84.8"/>
<text text-anchor="middle" x="452" y="-62.6" font-family="Times,serif" font-size="14.00">FirebaseModule</text>
</g>
<!-- AppModule -->
<g id="node5" class="node">
<title>AppModule</title>
<polygon fill="#8dd3c7" stroke="black" points="426.66,-149.8 423.66,-153.8 402.66,-153.8 399.66,-149.8 343.34,-149.8 343.34,-113.8 426.66,-113.8 426.66,-149.8"/>
<text text-anchor="middle" x="385" y="-127.6" font-family="Times,serif" font-size="14.00">AppModule</text>
</g>
<!-- FirebaseModule&#45;&gt;AppModule -->
<g id="edge1" class="edge">
<title>FirebaseModule&#45;&gt;AppModule</title>
<path fill="none" stroke="black" d="M412.67,-84.91C412.67,-84.91 412.67,-103.79 412.67,-103.79"/>
<polygon fill="black" stroke="black" points="409.17,-103.79 412.67,-113.79 416.17,-103.79 409.17,-103.79"/>
</g>
<!-- RestaurantsModule -->
<g id="node2" class="node">
<title>RestaurantsModule</title>
<polygon fill="#8dd3c7" stroke="black" points="380.36,-84.8 377.36,-88.8 356.36,-88.8 353.36,-84.8 255.64,-84.8 255.64,-48.8 380.36,-48.8 380.36,-84.8"/>
<text text-anchor="middle" x="318" y="-62.6" font-family="Times,serif" font-size="14.00">RestaurantsModule</text>
</g>
<!-- RestaurantsModule&#45;&gt;AppModule -->
<g id="edge2" class="edge">
<title>RestaurantsModule&#45;&gt;AppModule</title>
<path fill="none" stroke="black" d="M361.8,-84.91C361.8,-84.91 361.8,-103.79 361.8,-103.79"/>
<polygon fill="black" stroke="black" points="358.3,-103.79 361.8,-113.79 365.3,-103.79 358.3,-103.79"/>
</g>
<!-- SupportModule -->
<g id="node3" class="node">
<title>SupportModule</title>
<polygon fill="#8dd3c7" stroke="black" points="237.88,-84.8 234.88,-88.8 213.88,-88.8 210.88,-84.8 134.12,-84.8 134.12,-48.8 237.88,-48.8 237.88,-84.8"/>
<text text-anchor="middle" x="186" y="-62.6" font-family="Times,serif" font-size="14.00">SupportModule</text>
</g>
<!-- SupportModule&#45;&gt;AppModule -->
<g id="edge3" class="edge">
<title>SupportModule&#45;&gt;AppModule</title>
<path fill="none" stroke="black" d="M186,-84.82C186,-102.17 186,-125.8 186,-125.8 186,-125.8 333.28,-125.8 333.28,-125.8"/>
<polygon fill="black" stroke="black" points="333.28,-129.3 343.28,-125.8 333.28,-122.3 333.28,-129.3"/>
</g>
<!-- SyncsModule -->
<g id="node4" class="node">
<title>SyncsModule</title>
<polygon fill="#8dd3c7" stroke="black" points="116.49,-84.8 113.49,-88.8 92.49,-88.8 89.49,-84.8 23.51,-84.8 23.51,-48.8 116.49,-48.8 116.49,-84.8"/>
<text text-anchor="middle" x="70" y="-62.6" font-family="Times,serif" font-size="14.00">SyncsModule</text>
</g>
<!-- SyncsModule&#45;&gt;AppModule -->
<g id="edge4" class="edge">
<title>SyncsModule&#45;&gt;AppModule</title>
<path fill="none" stroke="black" d="M70,-85.08C70,-106.12 70,-137.8 70,-137.8 70,-137.8 333.17,-137.8 333.17,-137.8"/>
<polygon fill="black" stroke="black" points="333.17,-141.3 343.17,-137.8 333.17,-134.3 333.17,-141.3"/>
</g>
<!-- AppService -->
<g id="node6" class="node">
<title>AppService</title>
<ellipse fill="#fdb462" stroke="black" cx="729" cy="-66.8" rx="56.74" ry="18"/>
<text text-anchor="middle" x="729" y="-62.6" font-family="Times,serif" font-size="14.00">AppService</text>
</g>
<!-- AppService&#45;&gt;AppModule -->
<g id="edge5" class="edge">
<title>AppService&#45;&gt;AppModule</title>
<path fill="none" stroke="black" d="M729,-85.08C729,-106.12 729,-137.8 729,-137.8 729,-137.8 436.84,-137.8 436.84,-137.8"/>
<polygon fill="black" stroke="black" points="436.84,-134.3 426.84,-137.8 436.84,-141.3 436.84,-134.3"/>
</g>
<!-- TasksService -->
<g id="node7" class="node">
<title>TasksService</title>
<ellipse fill="#fdb462" stroke="black" cx="592" cy="-66.8" rx="62.54" ry="18"/>
<text text-anchor="middle" x="592" y="-62.6" font-family="Times,serif" font-size="14.00">TasksService</text>
</g>
<!-- TasksService&#45;&gt;AppModule -->
<g id="edge6" class="edge">
<title>TasksService&#45;&gt;AppModule</title>
<path fill="none" stroke="black" d="M592,-84.82C592,-102.17 592,-125.8 592,-125.8 592,-125.8 436.89,-125.8 436.89,-125.8"/>
<polygon fill="black" stroke="black" points="436.89,-122.3 426.89,-125.8 436.89,-129.3 436.89,-122.3"/>
</g>
</g>
</svg>
